<svg width="50" height="50" viewBox="0 0 50 50" fill="none" xmlns="http://www.w3.org/2000/svg">
<path d="M46.4375 24.2447H41.7863C40.6234 8.96511 23.3558 0.674275 10.7047 9.32125C5.27118 13.0351 2.02447 19.1945 2.03126 25.776V30.3698C2.03968 37.9774 8.20483 44.1425 15.8125 44.151H23.4688C31.0764 44.1425 37.2415 37.9774 37.25 30.3698V27.3072H46.4375C47.6162 27.3072 48.353 26.0311 47.7636 25.0103C47.49 24.5366 46.9845 24.2447 46.4375 24.2447ZM15.8125 35.7291C12.2762 35.729 10.066 31.9007 11.8343 28.8383C13.6026 25.7759 18.0229 25.7761 19.7909 28.8387C20.194 29.537 20.4062 30.3291 20.4062 31.1354C20.4062 33.6725 18.3496 35.7292 15.8125 35.7291ZM34.1875 30.3698C34.1816 35.8764 30.0083 40.4848 24.5291 41.0349C27.7347 38.4219 29.5945 34.5054 29.5937 30.3698V27.3072H34.1875V30.3698Z" fill="black"/>
</svg>
