<svg width="83" height="40" viewBox="0 0 83 40" fill="none" xmlns="http://www.w3.org/2000/svg">
<path d="M28.8225 28.0847H36.1694V3.09283H3.83063V28.0847H11.1775" stroke="black" stroke-width="3" stroke-miterlimit="10"/>
<path d="M9.70203 22.198H30.298" stroke="black" stroke-width="3" stroke-miterlimit="10"/>
<path d="M12.6531 19.2622V10.4398H27.3469V19.2622" stroke="black" stroke-width="3" stroke-miterlimit="10"/>
<path d="M12.6531 22.198C14.4347 26.9059 15.4266 31.8759 15.5888 36.9072" stroke="black" stroke-width="3" stroke-miterlimit="10"/>
<path d="M27.3469 22.198C25.5653 26.9059 24.5734 31.8759 24.4113 36.9072" stroke="black" stroke-width="3" stroke-miterlimit="10"/>
<path d="M20 22.198V36.9072" stroke="black" stroke-width="3" stroke-miterlimit="10"/>
<path d="M14.1133 28.0847H25.8867" stroke="black" stroke-width="3" stroke-miterlimit="10"/>
<path d="M14.1133 33.9714H25.8867" stroke="black" stroke-width="3" stroke-miterlimit="10"/>
<path d="M79.4375 15.5469V33.5313C79.4375 34.3269 79.1214 35.09 78.5588 35.6526C77.9962 36.2152 77.2331 36.5313 76.4375 36.5313C75.6456 36.5192 74.8896 36.1992 74.3296 35.6392C73.7695 35.0792 73.4496 34.3231 73.4375 33.5313V15.5469H79.4375Z" stroke="black" stroke-width="3" stroke-miterlimit="10"/>
<path d="M76.4375 36.5312H49.4688C48.6731 36.5312 47.91 36.2152 47.3474 35.6526C46.7848 35.09 46.4688 34.3269 46.4688 33.5313V3.5625H73.4375V33.5313C73.4496 34.3231 73.7695 35.0792 74.3296 35.6392C74.8896 36.1992 75.6456 36.5192 76.4375 36.5312Z" stroke="black" stroke-width="3" stroke-miterlimit="10"/>
<path d="M52.4688 18.5469H67.4531V24.5469H52.4688V18.5469Z" stroke="black" stroke-width="3" stroke-miterlimit="10"/>
<path d="M50.9688 30.5312H68.9531" stroke="black" stroke-width="3" stroke-miterlimit="10"/>
<path d="M46.4688 12.5469H73.4375" stroke="black" stroke-width="3" stroke-miterlimit="10"/>
<path d="M50.9688 8.0625H53.9688" stroke="black" stroke-width="3" stroke-miterlimit="10"/>
<path d="M56.9531 8.0625H59.9531" stroke="black" stroke-width="3" stroke-miterlimit="10"/>
</svg>
