<svg width="90" height="50" viewBox="0 0 90 50" fill="none" xmlns="http://www.w3.org/2000/svg">
<path d="M28.8225 38.0847H36.1694V13.0928H3.83063V38.0847H11.1775" stroke="black" stroke-width="3" stroke-miterlimit="10"/>
<path d="M9.70203 32.198H30.298" stroke="black" stroke-width="3" stroke-miterlimit="10"/>
<path d="M12.6531 29.2622V20.4398H27.3469V29.2622" stroke="black" stroke-width="3" stroke-miterlimit="10"/>
<path d="M12.6531 32.198C14.4347 36.9059 15.4266 41.8759 15.5888 46.9072" stroke="black" stroke-width="3" stroke-miterlimit="10"/>
<path d="M27.3469 32.198C25.5653 36.9059 24.5734 41.8759 24.4113 46.9072" stroke="black" stroke-width="3" stroke-miterlimit="10"/>
<path d="M20 32.198V46.9072" stroke="black" stroke-width="3" stroke-miterlimit="10"/>
<path d="M14.1133 38.0847H25.8867" stroke="black" stroke-width="3" stroke-miterlimit="10"/>
<path d="M14.1133 43.9714H25.8867" stroke="black" stroke-width="3" stroke-miterlimit="10"/>
<path d="M55.6641 45.5078H46.3281L48.1836 41.7773L46.3281 38.0273H55.6641V45.5078Z" stroke="black" stroke-width="3" stroke-miterlimit="10"/>
<path d="M74.3359 45.5078H83.6914L81.8164 41.7773L83.6914 38.0273H74.3359V45.5078Z" stroke="black" stroke-width="3" stroke-miterlimit="10"/>
<path d="M55.6641 34.2969H74.3555V41.7773H55.6641V34.2969Z" stroke="black" stroke-width="3" stroke-miterlimit="10"/>
<path d="M61.2695 8.14453C61.2695 8.63442 61.366 9.11952 61.5535 9.57212C61.741 10.0247 62.0158 10.436 62.3622 10.7824C62.7086 11.1288 63.1198 11.4036 63.5724 11.591C64.025 11.7785 64.5101 11.875 65 11.875C65.4899 11.875 65.975 11.7785 66.4276 11.591C66.8802 11.4036 67.2914 11.1288 67.6378 10.7824C67.9842 10.436 68.259 10.0247 68.4465 9.57212C68.634 9.11952 68.7305 8.63442 68.7305 8.14453C68.7305 7.65464 68.634 7.16954 68.4465 6.71694C68.259 6.26434 67.9842 5.8531 67.6378 5.50669C67.2914 5.16029 66.8802 4.8855 66.4276 4.69803C65.975 4.51055 65.4899 4.41406 65 4.41406C64.5101 4.41406 64.025 4.51055 63.5724 4.69803C63.1198 4.8855 62.7086 5.16029 62.3622 5.50669C62.0158 5.8531 61.741 6.26434 61.5535 6.71694C61.366 7.16954 61.2695 7.65464 61.2695 8.14453Z" stroke="black" stroke-width="3" stroke-miterlimit="10"/>
<path d="M59.3945 30.5664V15.625H70.6055V30.5664" stroke="black" stroke-width="3" stroke-miterlimit="10"/>
<path d="M70.6055 15.625H72.4805L76.2109 11.875V2.53906" stroke="black" stroke-width="3" stroke-miterlimit="10"/>
<path d="M59.3945 15.625H57.5195L53.7891 11.875V2.53906" stroke="black" stroke-width="3" stroke-miterlimit="10"/>
</svg>
