<svg width="50" height="50" viewBox="0 0 50 50" fill="none" xmlns="http://www.w3.org/2000/svg">
<path d="M22.9213 40.6174L20.6225 42.8979C15.395 48.0795 6.51859 45.659 4.64515 38.5412C3.8307 35.4475 4.61742 32.1516 6.74144 29.7594L7.10238 29.3777L26.1422 10.0643L29.5907 13.5127L37.5221 5.717C40.1366 3.12579 44.5758 4.33692 45.5123 7.89668C45.9076 9.39864 45.5487 10.999 44.5498 12.1885L44.2832 12.4781L36.4875 20.4096L39.936 23.858L31.5034 32.1732" stroke="black" stroke-width="3" stroke-linecap="round" stroke-linejoin="round"/>
<path d="M21.5305 14.6621L35.3243 28.4559" stroke="black" stroke-width="3" stroke-linecap="round" stroke-linejoin="round"/>
<path d="M22.6799 38.8012C22.6799 44.1103 28.4274 47.4285 33.0252 44.774C35.1592 43.542 36.4737 41.2652 36.4737 38.8012C36.4737 33.492 30.7264 30.1736 26.1284 32.8283C23.9946 34.0603 22.6799 36.3371 22.6799 38.8012Z" stroke="black" stroke-width="3" stroke-linecap="round" stroke-linejoin="round"/>
</svg>
