<svg width="90" height="50" viewBox="0 0 90 50" fill="none" xmlns="http://www.w3.org/2000/svg">
<path d="M25 44.9653C22.2715 44.9653 19.6925 44.4412 17.2635 43.393C14.8344 42.3448 12.7131 40.914 10.8995 39.1005C9.08601 37.2869 7.65517 35.1656 6.60699 32.7366C5.55882 30.3075 5.03473 27.7286 5.03473 25C5.03473 22.2381 5.55882 19.651 6.60699 17.2385C7.65517 14.826 9.08601 12.7131 10.8995 10.8995C12.7131 9.08601 14.8344 7.65517 17.2635 6.60699C19.6925 5.55882 22.2715 5.03473 25 5.03473C27.7619 5.03473 30.349 5.55882 32.7615 6.60699C35.174 7.65517 37.2869 9.08601 39.1005 10.8995C40.914 12.7131 42.3448 14.826 43.393 17.2385C44.4412 19.651 44.9653 22.2381 44.9653 25C44.9653 27.7286 44.4412 30.3075 43.393 32.7366C42.3448 35.1656 40.914 37.2869 39.1005 39.1005C37.2869 40.914 35.174 42.3448 32.7615 43.393C30.349 44.4412 27.7619 44.9653 25 44.9653ZM35.2322 20.3581L38.6762 19.1602L39.5747 15.9657C38.4433 14.2021 37.0458 12.6964 35.3819 11.4486C33.7181 10.2007 31.8381 9.24408 29.7418 8.57857L26.4974 10.7248V14.2188L35.2322 20.3581ZM14.8177 20.3581L23.5026 14.2188V10.7248L20.3082 8.57857C18.2118 9.24408 16.3318 10.2007 14.668 11.4486C13.0042 12.6964 11.6066 14.2021 10.4753 15.9657L11.5734 19.1602L14.8177 20.3581ZM12.1224 36.3303L15.1172 35.9809L17.0638 32.7366L13.9692 23.2031L10.4254 22.0052L8.02952 23.9518C8.02952 26.3477 8.29573 28.5356 8.82813 30.5154C9.36054 32.4953 10.4586 34.4336 12.1224 36.3303ZM25 41.9705C25.8984 41.9705 26.8052 41.8873 27.7203 41.7209C28.6354 41.5545 29.592 41.3383 30.5903 41.0721L32.2374 37.4783L30.6402 34.7331H19.4097L17.8125 37.4783L19.4596 41.0721C20.3248 41.3383 21.2398 41.5545 22.2049 41.7209C23.1699 41.8873 24.1016 41.9705 25 41.9705ZM19.7092 31.7383H30.0912L33.1359 22.6042L25 16.7643L16.7144 22.6042L19.7092 31.7383ZM37.9275 36.3303C39.558 34.4336 40.6395 32.4953 41.1719 30.5154C41.7043 28.5356 41.9705 26.3477 41.9705 23.9518L39.5747 22.3047L36.0807 23.2031L32.9861 32.7366L34.8828 35.9809L37.9275 36.3303Z" fill="black"/>
<path d="M86.4375 20.5469V38.5313C86.4375 39.3269 86.1214 40.09 85.5588 40.6526C84.9962 41.2152 84.2331 41.5313 83.4375 41.5313C82.6456 41.5192 81.8896 41.1992 81.3296 40.6392C80.7695 40.0792 80.4496 39.3231 80.4375 38.5313V20.5469H86.4375Z" stroke="black" stroke-width="3" stroke-miterlimit="10"/>
<path d="M83.4375 41.5312H56.4688C55.6731 41.5312 54.91 41.2152 54.3474 40.6526C53.7848 40.09 53.4688 39.3269 53.4688 38.5313V8.5625H80.4375V38.5313C80.4496 39.3231 80.7695 40.0792 81.3296 40.6392C81.8896 41.1992 82.6456 41.5192 83.4375 41.5312Z" stroke="black" stroke-width="3" stroke-miterlimit="10"/>
<path d="M59.4688 23.5469H74.4531V29.5469H59.4688V23.5469Z" stroke="black" stroke-width="3" stroke-miterlimit="10"/>
<path d="M57.9688 35.5312H75.9531" stroke="black" stroke-width="3" stroke-miterlimit="10"/>
<path d="M53.4688 17.5469H80.4375" stroke="black" stroke-width="3" stroke-miterlimit="10"/>
<path d="M57.9688 13.0625H60.9688" stroke="black" stroke-width="3" stroke-miterlimit="10"/>
<path d="M63.9531 13.0625H66.9531" stroke="black" stroke-width="3" stroke-miterlimit="10"/>
</svg>
