<svg width="100" height="50" viewBox="0 0 100 50" fill="none" xmlns="http://www.w3.org/2000/svg">
<path d="M19.9653 44.9306C17.2367 44.9306 14.6578 44.4065 12.2287 43.3583C9.79966 42.3101 7.67835 40.8793 5.8648 39.0658C4.05128 37.2522 2.62044 35.1309 1.57227 32.7018C0.524088 30.2727 0 27.6938 0 24.9653C0 22.2034 0.524088 19.6163 1.57227 17.2038C2.62044 14.7913 4.05128 12.6783 5.8648 10.8648C7.67835 9.05128 9.79966 7.62044 12.2287 6.57227C14.6578 5.52409 17.2367 5 19.9653 5C22.7272 5 25.3143 5.52409 27.7268 6.57227C30.1393 7.62044 32.2522 9.05128 34.0658 10.8648C35.8793 12.6783 37.3101 14.7913 38.3583 17.2038C39.4065 19.6163 39.9306 22.2034 39.9306 24.9653C39.9306 27.6938 39.4065 30.2727 38.3583 32.7018C37.3101 35.1309 35.8793 37.2522 34.0658 39.0658C32.2522 40.8793 30.1393 42.3101 27.7268 43.3583C25.3143 44.4065 22.7272 44.9306 19.9653 44.9306ZM30.1975 20.3234L33.6415 19.1254L34.5399 15.931C33.4086 14.1674 32.011 12.6617 30.3472 11.4138C28.6834 10.166 26.8034 9.20935 24.707 8.54384L21.4627 10.6901V14.184L30.1975 20.3234ZM9.78299 20.3234L18.4679 14.184V10.6901L15.2734 8.54384C13.1771 9.20935 11.2971 10.166 9.63325 11.4138C7.96944 12.6617 6.57187 14.1674 5.44054 15.931L6.53863 19.1254L9.78299 20.3234ZM7.08767 36.2956L10.0825 35.9462L12.0291 32.7018L8.93446 23.1684L5.39062 21.9705L2.99479 23.9171C2.99479 26.3129 3.261 28.5008 3.7934 30.4807C4.32581 32.4605 5.4239 34.3989 7.08767 36.2956ZM19.9653 41.9358C20.8637 41.9358 21.7704 41.8526 22.6855 41.6862C23.6007 41.5198 24.5573 41.3036 25.5556 41.0373L27.2027 37.4436L25.6055 34.6983H14.375L12.7778 37.4436L14.4249 41.0373C15.2901 41.3036 16.2051 41.5198 17.1701 41.6862C18.1352 41.8526 19.0668 41.9358 19.9653 41.9358ZM14.6745 31.7036H25.0564L28.1011 22.5694L19.9653 16.7296L11.6797 22.5694L14.6745 31.7036ZM32.8928 36.2956C34.5233 34.3989 35.6048 32.4605 36.1372 30.4807C36.6695 28.5008 36.9358 26.3129 36.9358 23.9171L34.5399 22.27L31.046 23.1684L27.9514 32.7018L29.8481 35.9462L32.8928 36.2956Z" fill="black"/>
<path d="M65.6641 45.5078H56.3281L58.1836 41.7773L56.3281 38.0273H65.6641V45.5078Z" stroke="black" stroke-width="3" stroke-miterlimit="10"/>
<path d="M84.3359 45.5078H93.6914L91.8164 41.7773L93.6914 38.0273H84.3359V45.5078Z" stroke="black" stroke-width="3" stroke-miterlimit="10"/>
<path d="M65.6641 34.2969H84.3555V41.7773H65.6641V34.2969Z" stroke="black" stroke-width="3" stroke-miterlimit="10"/>
<path d="M71.2695 8.14453C71.2695 8.63442 71.366 9.11952 71.5535 9.57212C71.741 10.0247 72.0158 10.436 72.3622 10.7824C72.7086 11.1288 73.1198 11.4036 73.5724 11.591C74.025 11.7785 74.5101 11.875 75 11.875C75.4899 11.875 75.975 11.7785 76.4276 11.591C76.8802 11.4036 77.2914 11.1288 77.6378 10.7824C77.9842 10.436 78.259 10.0247 78.4465 9.57212C78.634 9.11952 78.7305 8.63442 78.7305 8.14453C78.7305 7.65464 78.634 7.16954 78.4465 6.71694C78.259 6.26434 77.9842 5.8531 77.6378 5.50669C77.2914 5.16029 76.8802 4.8855 76.4276 4.69803C75.975 4.51055 75.4899 4.41406 75 4.41406C74.5101 4.41406 74.025 4.51055 73.5724 4.69803C73.1198 4.8855 72.7086 5.16029 72.3622 5.50669C72.0158 5.8531 71.741 6.26434 71.5535 6.71694C71.366 7.16954 71.2695 7.65464 71.2695 8.14453Z" stroke="black" stroke-width="3" stroke-miterlimit="10"/>
<path d="M69.3945 30.5664V15.625H80.6055V30.5664" stroke="black" stroke-width="3" stroke-miterlimit="10"/>
<path d="M80.6055 15.625H82.4805L86.2109 11.875V2.53906" stroke="black" stroke-width="3" stroke-miterlimit="10"/>
<path d="M69.3945 15.625H67.5195L63.7891 11.875V2.53906" stroke="black" stroke-width="3" stroke-miterlimit="10"/>
</svg>
