<svg width="91" height="50" viewBox="0 0 91 50" fill="none" xmlns="http://www.w3.org/2000/svg">
<path d="M25 44.9653C22.2715 44.9653 19.6925 44.4412 17.2635 43.393C14.8344 42.3448 12.7131 40.914 10.8995 39.1005C9.08601 37.2869 7.65517 35.1656 6.60699 32.7366C5.55882 30.3075 5.03473 27.7286 5.03473 25C5.03473 22.2381 5.55882 19.651 6.60699 17.2385C7.65517 14.826 9.08601 12.7131 10.8995 10.8995C12.7131 9.08601 14.8344 7.65517 17.2635 6.60699C19.6925 5.55882 22.2715 5.03473 25 5.03473C27.7619 5.03473 30.349 5.55882 32.7615 6.60699C35.174 7.65517 37.2869 9.08601 39.1005 10.8995C40.914 12.7131 42.3448 14.826 43.393 17.2385C44.4412 19.651 44.9653 22.2381 44.9653 25C44.9653 27.7286 44.4412 30.3075 43.393 32.7366C42.3448 35.1656 40.914 37.2869 39.1005 39.1005C37.2869 40.914 35.174 42.3448 32.7615 43.393C30.349 44.4412 27.7619 44.9653 25 44.9653ZM35.2322 20.3581L38.6762 19.1602L39.5747 15.9657C38.4433 14.2021 37.0458 12.6964 35.3819 11.4486C33.7181 10.2007 31.8381 9.24408 29.7418 8.57857L26.4974 10.7248V14.2188L35.2322 20.3581ZM14.8177 20.3581L23.5026 14.2188V10.7248L20.3082 8.57857C18.2118 9.24408 16.3318 10.2007 14.668 11.4486C13.0042 12.6964 11.6066 14.2021 10.4753 15.9657L11.5734 19.1602L14.8177 20.3581ZM12.1224 36.3303L15.1172 35.9809L17.0638 32.7366L13.9692 23.2031L10.4254 22.0052L8.02952 23.9518C8.02952 26.3477 8.29573 28.5356 8.82813 30.5154C9.36054 32.4953 10.4586 34.4336 12.1224 36.3303ZM25 41.9705C25.8984 41.9705 26.8052 41.8873 27.7203 41.7209C28.6354 41.5545 29.592 41.3383 30.5903 41.0721L32.2374 37.4783L30.6402 34.7331H19.4097L17.8125 37.4783L19.4596 41.0721C20.3248 41.3383 21.2398 41.5545 22.2049 41.7209C23.1699 41.8873 24.1016 41.9705 25 41.9705ZM19.7092 31.7383H30.0912L33.1359 22.6042L25 16.7643L16.7144 22.6042L19.7092 31.7383ZM37.9275 36.3303C39.558 34.4336 40.6395 32.4953 41.1719 30.5154C41.7043 28.5356 41.9705 26.3477 41.9705 23.9518L39.5747 22.3047L36.0807 23.2031L32.9861 32.7366L34.8828 35.9809L37.9275 36.3303Z" fill="black"/>
<path d="M67.2656 12.3281C67.2656 13.3185 67.6591 14.2684 68.3594 14.9687C69.0597 15.6691 70.0096 16.0625 71 16.0625C71.9904 16.0625 72.9403 15.6691 73.6406 14.9687C74.3409 14.2684 74.7344 13.3185 74.7344 12.3281C74.7344 11.3377 74.3409 10.3879 73.6406 9.68752C72.9403 8.98719 71.9904 8.59375 71 8.59375C70.0096 8.59375 69.0597 8.98719 68.3594 9.68752C67.6591 10.3879 67.2656 11.3377 67.2656 12.3281Z" stroke="black" stroke-width="3" stroke-miterlimit="10"/>
<path d="M79.9688 14.5781C79.9688 15.3696 80.2832 16.1287 80.8429 16.6884C81.4025 17.2481 82.1616 17.5625 82.9531 17.5625C83.7446 17.5625 84.5037 17.2481 85.0634 16.6884C85.6231 16.1287 85.9375 15.3696 85.9375 14.5781C85.9375 13.7866 85.6231 13.0275 85.0634 12.4679C84.5037 11.9082 83.7446 11.5938 82.9531 11.5938C82.1616 11.5938 81.4025 11.9082 80.8429 12.4679C80.2832 13.0275 79.9688 13.7866 79.9688 14.5781Z" stroke="black" stroke-width="3" stroke-miterlimit="10"/>
<path d="M56.0625 14.5781C56.0625 15.3696 56.3769 16.1287 56.9366 16.6884C57.4963 17.2481 58.2554 17.5625 59.0469 17.5625C59.8384 17.5625 60.5975 17.2481 61.1571 16.6884C61.7168 16.1287 62.0312 15.3696 62.0312 14.5781C62.0312 13.7866 61.7168 13.0275 61.1571 12.4679C60.5975 11.9082 59.8384 11.5938 59.0469 11.5938C58.2554 11.5938 57.4963 11.9082 56.9366 12.4679C56.3769 13.0275 56.0625 13.7866 56.0625 14.5781Z" stroke="black" stroke-width="3" stroke-miterlimit="10"/>
<path d="M73.9844 42.9688V31.0156L75.4844 29.5156V19.0625H66.5156V29.5156L68.0156 31.0156V42.9688" stroke="black" stroke-width="3" stroke-miterlimit="10"/>
<path d="M85.9531 39.9844V30.2656V20.5469H79.9688V30.2656V39.9844" stroke="black" stroke-width="3" stroke-miterlimit="10"/>
<path d="M62.0312 39.9844V30.2656V20.5469H56.0625V30.2656V39.9844" stroke="black" stroke-width="3" stroke-miterlimit="10"/>
</svg>
