<svg width="60" height="60" viewBox="0 0 60 60" fill="none" xmlns="http://www.w3.org/2000/svg">
<path d="M26.2266 32.8152L24.0704 30.659C24.3898 30.2197 24.6394 29.756 24.819 29.2676C24.9987 28.7788 25.0886 28.2797 25.0886 27.7702C25.0886 27.2602 24.9987 26.7558 24.819 26.2566C24.6394 25.7575 24.3898 25.3082 24.0704 24.909L26.2266 22.7527C26.9055 23.4715 27.4045 24.2601 27.724 25.1186C28.0435 25.9772 28.2032 26.8655 28.2032 27.784C28.2032 28.7024 28.0435 29.5908 27.724 30.4493C27.4045 31.3079 26.9055 32.0965 26.2266 32.8152ZM30.5391 37.1277L28.3829 34.9715C29.3412 33.8134 30.05 32.6343 30.5092 31.434C30.9683 30.2337 31.198 29.0158 31.198 27.7804C31.198 26.545 30.9683 25.3183 30.5092 24.1004C30.05 22.8825 29.3412 21.7145 28.3829 20.5965L30.5391 18.4402C31.8169 19.8777 32.7552 21.3803 33.3542 22.948C33.9532 24.5161 34.2526 26.1281 34.2526 27.784C34.2526 29.4279 33.9532 31.0367 33.3542 32.6104C32.7552 34.1844 31.8169 35.6902 30.5391 37.1277ZM12.6279 29.7006C11.3916 29.7006 10.3342 29.2606 9.45577 28.3805C8.5773 27.5001 8.13806 26.4419 8.13806 25.2061C8.13806 23.9698 8.57809 22.9124 9.45817 22.034C10.3386 21.1555 11.3968 20.7163 12.6326 20.7163C13.8689 20.7163 14.9263 21.1563 15.8047 22.0364C16.6832 22.9168 17.1224 23.975 17.1224 25.2108C17.1224 26.4471 16.6824 27.5045 15.8023 28.3829C14.9219 29.2614 13.8637 29.7006 12.6279 29.7006ZM3.64587 38.9845V38.2059C3.64587 37.3641 3.87368 36.5925 4.32929 35.8909C4.78489 35.1893 5.41559 34.6632 6.2214 34.3126C7.22285 33.8925 8.25306 33.5679 9.31202 33.3387C10.3714 33.1096 11.4787 32.9949 12.6338 32.9949C13.7895 32.9949 14.8959 33.1096 15.9533 33.3387C17.0107 33.5679 18.0392 33.8925 19.0391 34.3126C19.8449 34.6632 20.4756 35.1893 20.9312 35.8909C21.3868 36.5925 21.6146 37.3641 21.6146 38.2059V38.9845H3.64587ZM47.3674 29.7006C46.1312 29.7006 45.0738 29.2606 44.1954 28.3805C43.3169 27.5001 42.8776 26.4419 42.8776 25.2061C42.8776 23.9698 43.3176 22.9124 44.1977 22.034C45.0782 21.1555 46.1363 20.7163 47.3722 20.7163C48.6085 20.7163 49.6659 21.1563 50.5443 22.0364C51.4227 22.9168 51.862 23.975 51.862 25.2108C51.862 26.4471 51.422 27.5045 50.5419 28.3829C49.6614 29.2614 48.6033 29.7006 47.3674 29.7006ZM38.3855 38.9845V38.2059C38.3855 37.3641 38.6133 36.5925 39.0689 35.8909C39.5244 35.1893 40.1551 34.6632 40.961 34.3126C41.9624 33.8925 42.9926 33.5679 44.0516 33.3387C45.1109 33.1096 46.2183 32.9949 47.3734 32.9949C48.5291 32.9949 49.6354 33.1096 50.6928 33.3387C51.7503 33.5679 52.7788 33.8925 53.7787 34.3126C54.5845 34.6632 55.2152 35.1893 55.6708 35.8909C56.1264 36.5925 56.3542 37.3641 56.3542 38.2059V38.9845H38.3855Z" fill="black"/>
</svg>
