<svg width="50" height="50" viewBox="0 0 50 50" fill="none" xmlns="http://www.w3.org/2000/svg">
<path d="M3.17969 37.2496H14.2536C16.8395 37.2475 19.3047 36.1556 21.0442 34.2423L24.3598 30.5958L25.8196 31.3246C27.8971 32.3608 29.2102 34.4827 29.2106 36.8046V47.9683" stroke="black" stroke-width="3" stroke-linecap="round" stroke-linejoin="round"/>
<path d="M35.3358 47.9687V36.805C35.3502 32.1937 32.7598 27.9698 28.6431 25.8923L34.5396 19.4037C36.1252 17.6593 35.2281 14.8522 32.9244 14.3512C32.7104 14.3047 32.4921 14.2812 32.2733 14.2812H13.8984C11.5407 14.2812 10.0674 16.8333 11.2461 18.875C11.7932 19.8225 12.8043 20.4062 13.8984 20.4062H25.35L16.5178 30.1225C15.9374 30.761 15.1145 31.125 14.2515 31.125H3.17969" stroke="black" stroke-width="3" stroke-linecap="round" stroke-linejoin="round"/>
<path d="M36.1019 7.39072C36.1019 11.5163 40.568 14.0949 44.1409 12.0322C45.799 11.0747 46.8207 9.30552 46.8207 7.39072C46.8207 3.2651 42.3544 0.686552 38.7815 2.74927C37.1234 3.70677 36.1019 5.47593 36.1019 7.39072Z" stroke="black" stroke-width="3" stroke-linecap="round" stroke-linejoin="round"/>
<path d="M41.4611 44.9067C41.4611 46.5979 40.0898 47.9692 38.3986 47.9692H23.0861" stroke="black" stroke-width="3" stroke-linecap="round" stroke-linejoin="round"/>
<path d="M6.24219 43.375C4.55073 43.375 3.17969 42.004 3.17969 40.3125V25" stroke="black" stroke-width="3" stroke-linecap="round" stroke-linejoin="round"/>
<path d="M9.30481 31.1248V37.2498" stroke="black" stroke-width="3" stroke-linecap="round" stroke-linejoin="round"/>
<path d="M29.2108 41.8438H35.3358" stroke="black" stroke-width="3" stroke-linecap="round" stroke-linejoin="round"/>
</svg>
