<svg width="70" height="61" viewBox="0 0 70 61" fill="none" xmlns="http://www.w3.org/2000/svg">
<path d="M28.711 16.8316H32.9037V12.6389H28.711V16.8316ZM37.0964 16.8316V12.6389H41.2891V16.8316H37.0964ZM28.711 33.6024V29.4097H32.9037V33.6024H28.711ZM45.4818 25.217V21.0243H49.6745V25.217H45.4818ZM45.4818 33.6024V29.4097H49.6745V33.6024H45.4818ZM37.0964 33.6024V29.4097H41.2891V33.6024H37.0964ZM45.4818 16.8316V12.6389H49.6745V16.8316H45.4818ZM32.9037 21.0243V16.8316H37.0964V21.0243H32.9037ZM22.4093 57.3611C21.8122 57.3611 21.3155 57.1601 20.9195 56.7581C20.5236 56.3565 20.3256 55.8587 20.3256 55.2648V14.7352C20.3256 14.1413 20.5278 13.6433 20.9321 13.2412C21.336 12.8397 21.8368 12.6389 22.4345 12.6389C23.0317 12.6389 23.5306 12.8397 23.9313 13.2412C24.3314 13.6433 24.5315 14.1413 24.5315 14.7352V16.8316H28.711V21.0243H24.5183V25.217H28.711V29.4097H24.5183V55.2648C24.5183 55.8587 24.316 56.3565 23.9117 56.7581C23.5078 57.1601 23.0071 57.3611 22.4093 57.3611ZM41.2891 29.4097V25.217H45.4818V29.4097H41.2891ZM32.9037 29.4097V25.217H37.0964V29.4097H32.9037ZM28.711 25.217V21.0243H32.9037V25.217H28.711ZM37.0964 25.217V21.0243H41.2891V25.217H37.0964ZM41.2891 21.0243V16.8316H45.4818V21.0243H41.2891Z" fill="black"/>
</svg>
